<?xml version="1.0" standalone="no"?>
<!DOCTYPE svg PUBLIC "-//W3C//DTD SVG 20010904//EN"
 "http://www.w3.org/TR/2001/REC-SVG-20010904/DTD/svg10.dtd">
<svg version="1.0" xmlns="http://www.w3.org/2000/svg"
 width="520.000000pt" height="520.000000pt" viewBox="0 0 520.000000 520.000000"
 preserveAspectRatio="xMidYMid meet">
<metadata>
Created by potrace 1.11, written by Peter Selinger 2001-2013
</metadata>
<g transform="translate(0.000000,520.000000) scale(0.100000,-0.100000)"
fill="#000000" stroke="none">
<path d="M2668 3183 c-198 -3 -247 -10 -202 -27 9 -3 31 -6 50 -6 54 0 92 -24
99 -63 3 -17 5 -259 3 -535 l-3 -504 -24 -19 c-15 -12 -39 -19 -66 -19 -24 0
-50 -3 -59 -6 -48 -19 9 -24 249 -24 240 0 297 5 249 24 -9 3 -40 6 -70 6 -70
0 -121 21 -134 55 -13 34 -13 1004 0 1039 14 37 41 47 134 47 92 0 135 -13
195 -60 135 -107 143 -388 13 -502 -59 -52 -117 -73 -204 -73 -51 -1 -78 -5
-78 -12 0 -27 111 -32 208 -9 190 45 301 169 310 350 5 103 -13 166 -68 228
-64 73 -203 120 -335 115 -27 -2 -148 -4 -267 -5z"/>
<path d="M1862 3168 c3 -8 30 -16 62 -19 40 -5 65 -13 80 -28 21 -21 21 -25
24 -549 4 -718 -6 -802 -115 -910 -30 -30 -53 -58 -51 -64 5 -15 125 52 172
98 54 52 71 83 98 182 20 73 21 107 26 654 5 655 -2 607 89 618 26 3 48 11 51
18 3 9 -45 12 -218 12 -173 0 -221 -3 -218 -12z"/>
</g>
</svg>
